<?xml version="1.0" encoding="UTF-8" standalone="no"?>
<svg
   viewBox="0 0 200 200"
   version="1.1"
   id="svg1"
   sodipodi:docname="github-logo.svg"
   inkscape:version="1.3 (0e150ed6c4, 2023-07-21)"
   width="200"
   height="200"
   xmlns:inkscape="http://www.inkscape.org/namespaces/inkscape"
   xmlns:sodipodi="http://sodipodi.sourceforge.net/DTD/sodipodi-0.dtd"
   xmlns="http://www.w3.org/2000/svg"
   xmlns:svg="http://www.w3.org/2000/svg">
  <sodipodi:namedview
     id="namedview1"
     pagecolor="#ffffff"
     bordercolor="#000000"
     borderopacity="0.25"
     inkscape:showpageshadow="2"
     inkscape:pageopacity="0.0"
     inkscape:pagecheckerboard="true"
     inkscape:deskcolor="#d1d1d1"
     inkscape:zoom="2.1332759"
     inkscape:cx="150.4728"
     inkscape:cy="93.518141"
     inkscape:window-width="1920"
     inkscape:window-height="1009"
     inkscape:window-x="1912"
     inkscape:window-y="-8"
     inkscape:window-maximized="1"
     inkscape:current-layer="svg1" />
  <defs
     id="defs1">
    <style
       id="style1">&#10;      .cls-1 {&#10;        fill: #fff;&#10;      }&#10;    </style>
  </defs>
  <path
     id="Pfad_5"
     data-name="Pfad 5"
     class="cls-1"
     d="M 186.5673,52.221423 A 99.557689,99.557689 0 0 0 150.17611,15.813861 97.796692,97.796692 0 0 0 99.983649,2.4057213 97.813074,97.813074 0 0 0 49.799366,15.813861 99.541306,99.541306 0 0 0 13.408184,52.205043 97.804883,97.804883 0 0 0 4.4769989e-5,102.4057 97.174201,97.174201 0 0 0 19.076133,161.19019 a 97.927744,97.927744 0 0 0 49.275117,36.12909 5.8235719,5.8235719 0 0 0 5.209272,-0.90916 5.0946016,5.0946016 0 0 0 1.69547,-3.90696 q 0,-0.39315 -0.06553,-7.02761 -0.06553,-6.63444 -0.07372,-11.58161 l -2.997788,0.51602 a 38.201321,38.201321 0 0 1 -7.224177,0.45868 55.049544,55.049544 0 0 1 -9.009746,-0.90917 20.222783,20.222783 0 0 1 -8.723072,-3.90696 16.520597,16.520597 0 0 1 -5.733475,-8.00229 l -1.294126,-3.00598 a 32.533372,32.533372 0 0 0 -4.095339,-6.64263 15.70972,15.70972 0 0 0 -5.659759,-4.91441 l -0.909164,-0.65526 a 9.5585209,9.5585209 0 0 1 -1.695471,-1.56442 7.142271,7.142271 0 0 1 -1.171267,-1.82652 q -0.393153,-0.90917 0.647064,-1.49889 a 8.4445887,8.4445887 0 0 1 3.775902,-0.58154 l 2.604635,0.38495 a 19.002373,19.002373 0 0 1 6.446064,3.12065 21.01728,21.01728 0 0 1 6.315013,6.76551 22.933897,22.933897 0 0 0 7.224177,8.14153 15.324758,15.324758 0 0 0 8.526496,2.80121 37.021863,37.021863 0 0 0 7.420753,-0.64706 25.890732,25.890732 0 0 0 5.79081,-1.95757 21.090995,21.090995 0 0 1 6.380537,-13.40814 A 89.147337,89.147337 0 0 1 68.392196,144.21912 53.132927,53.132927 0 0 1 56.155323,139.1409 35.047911,35.047911 0 0 1 45.671255,130.41782 41.919889,41.919889 0 0 1 38.840231,116.74758 65.009409,65.009409 0 0 1 36.17007,97.221007 37.971982,37.971982 0 0 1 46.457561,70.396537 34.998766,34.998766 0 0 1 47.366726,43.84236 18.24064,18.24064 0 0 1 58.563383,45.603356 78.278307,78.278307 0 0 1 69.432412,50.61605 q 3.448275,2.080433 5.536897,3.513801 a 94.028981,94.028981 0 0 1 49.963131,0 l 4.91441,-3.120648 a 70.071248,70.071248 0 0 1 11.97476,-5.733474 17.061182,17.061182 0 0 1 10.54959,-1.433369 34.662948,34.662948 0 0 1 1.04022,26.554177 37.980173,37.980173 0 0 1 10.40216,26.808088 65.738379,65.738379 0 0 1 -2.67016,19.592105 40.289944,40.289944 0 0 1 -6.92112,13.68662 36.399371,36.399371 0 0 1 -10.54959,8.65755 53.239405,53.239405 0 0 1 -12.23688,5.07822 89.057239,89.057239 0 0 1 -13.34261,2.34253 23.187808,23.187808 0 0 1 6.76551,18.48636 v 27.47153 a 5.1846991,5.1846991 0 0 0 1.63813,3.90695 5.6515676,5.6515676 0 0 0 5.14374,0.90917 97.919552,97.919552 0 0 0 49.28331,-36.12907 A 97.190582,97.190582 0 0 0 200,102.42208 97.886789,97.886789 0 0 0 186.56729,52.221423 Z"
     style="stroke-width:8.19068" />
</svg>
