<?xml version="1.0" encoding="UTF-8" standalone="no"?>
<!-- Created with Inkscape (http://www.inkscape.org/) -->

<svg
   width="200mm"
   height="200mm"
   viewBox="0 0 200 200"
   version="1.1"
   id="svg1"
   inkscape:version="1.3 (0e150ed6c4, 2023-07-21)"
   sodipodi:docname="mobile-phone.svg"
   xmlns:inkscape="http://www.inkscape.org/namespaces/inkscape"
   xmlns:sodipodi="http://sodipodi.sourceforge.net/DTD/sodipodi-0.dtd"
   xmlns="http://www.w3.org/2000/svg"
   xmlns:svg="http://www.w3.org/2000/svg">
  <sodipodi:namedview
     id="namedview1"
     pagecolor="#ffffff"
     bordercolor="#000000"
     borderopacity="0.25"
     inkscape:showpageshadow="2"
     inkscape:pageopacity="0.0"
     inkscape:pagecheckerboard="true"
     inkscape:deskcolor="#d1d1d1"
     inkscape:document-units="mm"
     inkscape:zoom="1.0242632"
     inkscape:cx="406.63376"
     inkscape:cy="395.89433"
     inkscape:window-width="1920"
     inkscape:window-height="1009"
     inkscape:window-x="1912"
     inkscape:window-y="-8"
     inkscape:window-maximized="1"
     inkscape:current-layer="layer1" />
  <defs
     id="defs1">
    <inkscape:path-effect
       effect="fillet_chamfer"
       id="path-effect4"
       is_visible="true"
       lpeversion="1"
       nodesatellites_param="F,0,1,1,0,21.29537,0,1 @ IF,0,0,1,0,21.29537,0,1 @ F,0,0,1,0,0,0,1 @ F,0,0,1,0,0,0,1"
       radius="0"
       unit="px"
       method="auto"
       mode="F"
       chamfer_steps="1"
       flexible="false"
       use_knot_distance="true"
       apply_no_radius="true"
       apply_with_radius="true"
       only_selected="false"
       hide_knots="false" />
    <inkscape:path-effect
       effect="fillet_chamfer"
       id="path-effect2"
       is_visible="true"
       lpeversion="1"
       nodesatellites_param="F,0,1,1,0,17.658836,0,1 @ F,0,0,1,0,17.658836,0,1 @ F,0,0,1,0,0,0,1 @ F,0,0,1,0,0,0,1"
       radius="0"
       unit="px"
       method="auto"
       mode="F"
       chamfer_steps="1"
       flexible="false"
       use_knot_distance="true"
       apply_no_radius="true"
       apply_with_radius="true"
       only_selected="false"
       hide_knots="false" />
    <inkscape:path-effect
       effect="fillet_chamfer"
       id="path-effect2-6"
       is_visible="true"
       lpeversion="1"
       nodesatellites_param="F,0,1,1,0,17.658836,0,1 @ F,0,0,1,0,17.658836,0,1 @ F,0,0,1,0,0,0,1 @ F,0,0,1,0,0,0,1"
       radius="0"
       unit="px"
       method="auto"
       mode="F"
       chamfer_steps="1"
       flexible="false"
       use_knot_distance="true"
       apply_no_radius="true"
       apply_with_radius="true"
       only_selected="false"
       hide_knots="false" />
    <inkscape:path-effect
       effect="fillet_chamfer"
       id="path-effect4-7"
       is_visible="true"
       lpeversion="1"
       nodesatellites_param="F,0,1,1,0,21.29537,0,1 @ IF,0,0,1,0,21.29537,0,1 @ F,0,0,1,0,0,0,1 @ F,0,0,1,0,0,0,1"
       radius="0"
       unit="px"
       method="auto"
       mode="F"
       chamfer_steps="1"
       flexible="false"
       use_knot_distance="true"
       apply_no_radius="true"
       apply_with_radius="true"
       only_selected="false"
       hide_knots="false" />
  </defs>
  <g
     inkscape:label="Ebene 1"
     inkscape:groupmode="layer"
     id="layer1">
    <path
       d="M 34.104378,21.295341 V 178.70485 h 56.501978 a 10.912862,10.33263 0 0 1 1.6769,-2.37659 10.912862,10.33263 0 0 1 1.653646,-1.2852 10.912862,10.33263 0 0 1 1.887223,-0.95498 10.912862,10.33263 0 0 1 2.046904,-0.58808 10.912862,10.33263 0 0 1 2.129071,-0.19843 10.912862,10.33263 0 0 1 1.4242,0.0884 10.912862,10.33263 0 0 1 1.40043,0.26407 10.912862,10.33263 0 0 1 1.35134,0.43408 10.912862,10.33263 0 0 1 1.28054,0.5979 10.912862,10.33263 0 0 1 1.18701,0.75086 10.912862,10.33263 0 0 1 1.0728,0.89142 10.912862,10.33263 0 0 1 0.94155,1.01595 10.912862,10.33263 0 0 1 0.79271,1.12397 10.912862,10.33263 0 0 1 0.12351,0.23667 h 56.32163 V 21.295341 Z m 7.774719,0.775146 H 158.1211 V 169.92193 H 41.879097 Z"
       style="opacity:1;fill:#ffffff;stroke-width:0"
       id="path11" />
    <path
       d="M 55.399719,0 A 21.29537,21.29537 0 0 0 51.244934,0.40927734 21.29537,21.29537 0 0 0 47.250346,1.6210897 21.29537,21.29537 0 0 0 43.5684,3.5889282 21.29537,21.29537 0 0 0 40.341724,6.2373454 21.29537,21.29537 0 0 0 37.693306,9.4645386 21.29537,21.29537 0 0 0 35.725468,13.145968 21.29537,21.29537 0 0 0 34.513656,17.141073 21.29537,21.29537 0 0 0 34.104378,21.295341 H 165.89582 a 21.29537,21.29537 0 0 0 -0.0543,-1.519287 21.29537,21.29537 0 0 0 -0.16278,-1.511536 21.29537,21.29537 0 0 0 -0.26975,-1.496032 21.29537,21.29537 0 0 0 -0.37569,-1.472779 21.29537,21.29537 0 0 0 -0.48008,-1.442289 21.29537,21.29537 0 0 0 -0.58187,-1.404565 21.29537,21.29537 0 0 0 -0.68058,-1.359091 A 21.29537,21.29537 0 0 0 162.51514,9.7823486 21.29537,21.29537 0 0 0 161.64801,8.5333293 21.29537,21.29537 0 0 0 160.69458,7.349939 21.29537,21.29537 0 0 0 159.65847,6.2373454 21.29537,21.29537 0 0 0 158.54588,5.2012329 21.29537,21.29537 0 0 0 157.36249,4.2478027 21.29537,21.29537 0 0 0 156.11347,3.3806722 21.29537,21.29537 0 0 0 154.80605,2.605009 21.29537,21.29537 0 0 0 153.44696,1.9244303 21.29537,21.29537 0 0 0 152.0424,1.3425537 21.29537,21.29537 0 0 0 150.60011,0.86247965 21.29537,21.29537 0 0 0 149.12681,0.48679199 21.29537,21.29537 0 0 0 147.6313,0.21652425 21.29537,21.29537 0 0 0 146.11976,0.05426025 21.29537,21.29537 0 0 0 144.60048,0 Z m 21.48086,10.389547 H 123.1191 c 0.78932,0.306748 1.43296,0.598017 1.9482,0.875915 0.25762,0.138949 0.48329,0.274258 0.67903,0.406694 0.19574,0.132435 0.36142,0.261702 0.49971,0.38809 0.13829,0.126388 0.24908,0.25023 0.33435,0.371037 0.0853,0.120806 0.14522,0.238808 0.1819,0.3545 0.0367,0.115691 0.0499,0.228988 0.0424,0.340031 -0.007,0.111042 -0.036,0.219735 -0.0832,0.326595 -0.0472,0.106859 -0.11279,0.212084 -0.19533,0.315226 -0.0825,0.103142 -0.18165,0.204483 -0.29508,0.304374 -0.22684,0.199783 -0.51127,0.393334 -0.83509,0.58291 -0.32381,0.189576 -0.68744,0.375008 -1.0728,0.558106 -0.38536,0.183098 -0.79258,0.363805 -1.20406,0.544153 H 76.880579 c -0.624559,-0.274646 -1.14529,-0.540897 -1.572514,-0.799435 -0.213612,-0.129268 -0.404215,-0.256356 -0.572058,-0.381889 -0.167844,-0.125532 -0.313248,-0.249563 -0.4377,-0.371553 -0.124451,-0.12199 -0.227656,-0.24206 -0.311092,-0.360702 -0.08344,-0.118642 -0.146922,-0.235911 -0.191719,-0.351399 -0.0448,-0.115488 -0.07105,-0.229054 -0.07958,-0.341582 -0.0085,-0.112527 4.87e-4,-0.223551 0.02584,-0.333312 0.02535,-0.109762 0.06716,-0.218373 0.124024,-0.325562 0.05686,-0.107189 0.128982,-0.212999 0.214974,-0.31781 0.171983,-0.209622 0.399607,-0.414709 0.67386,-0.615983 0.274254,-0.201274 0.594887,-0.398768 0.952397,-0.593246 0.35751,-0.194477 0.751818,-0.385925 1.173572,-0.575158 z"
       style="opacity:1;fill:#ffffff;fill-opacity:0.992974;stroke-width:0"
       id="path5" />
    <path
       d="m 109.57832,178.70485 a 10.912862,10.33263 0 0 1 0.39068,0.72657 10.912862,10.33263 0 0 1 0.40979,1.00976 10.912862,10.33263 0 0 1 0.29559,1.0449 10.912862,10.33263 0 0 1 0.17829,1.06815 10.912862,10.33263 0 0 1 0.0599,1.08004 10.912862,10.33263 0 0 1 -0.53382,3.19309 10.912862,10.33263 0 0 1 -1.55029,2.88044 10.912862,10.33263 0 0 1 -2.41432,2.28565 10.912862,10.33263 0 0 1 -3.0422,1.46761 10.912862,10.33263 0 0 1 -3.37188,0.50591 10.912862,10.33263 0 0 1 -3.372406,-0.50591 10.912862,10.33263 0 0 1 -3.042192,-1.46761 10.912862,10.33263 0 0 1 -2.414323,-2.28565 10.912862,10.33263 0 0 1 -1.550293,-2.88044 10.912862,10.33263 0 0 1 -0.533817,-3.19309 10.912862,10.33263 0 0 1 0.533817,-3.19309 10.912862,10.33263 0 0 1 0.93431,-1.73633 H 34.104378 a 21.29537,21.29537 0 0 0 0.182418,2.77968 21.29537,21.29537 0 0 0 0.543119,2.73162 21.29537,21.29537 0 0 0 0.895553,2.63756 21.29537,21.29537 0 0 0 1.231966,2.49856 21.29537,21.29537 0 0 0 1.547709,2.31613 21.29537,21.29537 0 0 0 1.836581,2.09445 21.29537,21.29537 0 0 0 2.093929,1.83658 21.29537,21.29537 0 0 0 2.316137,1.54771 21.29537,21.29537 0 0 0 2.498556,1.23197 21.29537,21.29537 0 0 0 2.637565,0.89503 21.29537,21.29537 0 0 0 2.732133,0.54364 21.29537,21.29537 0 0 0 2.779675,0.18242 h 89.200761 a 21.29537,21.29537 0 0 0 2.77967,-0.18242 21.29537,21.29537 0 0 0 2.73213,-0.54364 21.29537,21.29537 0 0 0 2.63757,-0.89503 21.29537,21.29537 0 0 0 2.49804,-1.23197 21.29537,21.29537 0 0 0 2.31614,-1.54771 21.29537,21.29537 0 0 0 2.09444,-1.83658 21.29537,21.29537 0 0 0 1.83658,-2.09445 21.29537,21.29537 0 0 0 1.54771,-2.31613 21.29537,21.29537 0 0 0 1.23197,-2.49856 21.29537,21.29537 0 0 0 0.89555,-2.63756 21.29537,21.29537 0 0 0 0.54312,-2.73162 21.29537,21.29537 0 0 0 0.18242,-2.77968 z"
       style="fill:#ffffff;fill-opacity:0.992974;stroke-width:0"
       id="path9" />
    <rect
       style="fill:#eef6fc;fill-opacity:0.50196081;stroke:none;stroke-width:0;stroke-dasharray:none;stroke-opacity:1"
       id="rect10-9"
       width="116.24208"
       height="147.85188"
       x="41.87896"
       y="22.108604" />
  </g>
</svg>
