<?xml version="1.0" encoding="UTF-8" standalone="no"?>
<!-- Created with Inkscape (http://www.inkscape.org/) -->

<svg
   width="297mm"
   height="210mm"
   viewBox="0 0 297 210"
   version="1.1"
   id="svg1"
   sodipodi:docname="simplemail.svg"
   inkscape:version="1.3 (0e150ed6c4, 2023-07-21)"
   xmlns:inkscape="http://www.inkscape.org/namespaces/inkscape"
   xmlns:sodipodi="http://sodipodi.sourceforge.net/DTD/sodipodi-0.dtd"
   xmlns="http://www.w3.org/2000/svg"
   xmlns:svg="http://www.w3.org/2000/svg">
  <sodipodi:namedview
     id="namedview1"
     pagecolor="#505050"
     bordercolor="#eeeeee"
     borderopacity="1"
     inkscape:showpageshadow="0"
     inkscape:pageopacity="0"
     inkscape:pagecheckerboard="0"
     inkscape:deskcolor="#505050"
     inkscape:document-units="mm"
     inkscape:zoom="0.72426347"
     inkscape:cx="410.07177"
     inkscape:cy="414.90426"
     inkscape:window-width="1920"
     inkscape:window-height="1009"
     inkscape:window-x="1912"
     inkscape:window-y="-8"
     inkscape:window-maximized="1"
     inkscape:current-layer="layer1" />
  <defs
     id="defs1">
    <rect
       x="299.72763"
       y="441.29282"
       width="121.35446"
       height="137.92188"
       id="rect2" />
    <inkscape:path-effect
       effect="fillet_chamfer"
       id="path-effect1"
       is_visible="true"
       lpeversion="1"
       nodesatellites_param="F,0,0,1,0,30.686346,0,1 @ F,0,0,1,0,30.6863,0,1 @ F,0,0,1,0,30.6863,0,1 @ IF,0,0,1,0,30.6863,0,1"
       radius="0"
       unit="px"
       method="auto"
       mode="F"
       chamfer_steps="1"
       flexible="false"
       use_knot_distance="true"
       apply_no_radius="true"
       apply_with_radius="true"
       only_selected="false"
       hide_knots="false" />
  </defs>
  <g
     inkscape:label="Ebene 1"
     inkscape:groupmode="layer"
     id="layer1">
    <path
       id="rect"
       style="fill:#ffffff;stroke-width:0.301234"
       d="m 54.486951,53.368432 c -2.55804,5.386984 -3.026512,11.482661 -2.813643,17.366617 0.08998,23.571643 -0.177451,47.147771 0.22872,70.716121 0.499629,5.08225 2.484928,9.929 5.291309,14.16496 14.087495,-15.8728 28.371384,-31.64149 40.795619,-48.88369 0.324263,-0.99311 -0.617621,-1.64852 -1.249466,-2.21605 C 84.216778,92.029556 73.093151,78.164062 62.824452,63.830019 60.164021,60.12158 57.55734,56.374902 54.975388,52.611363 c -0.162811,0.252352 -0.325626,0.504719 -0.488437,0.757069 z" />
    <path
       id="path26"
       style="fill:#ffffff;stroke-width:0.301234"
       d="m 105.12902,113.29747 c -9.57327,13.40048 -20.554738,25.69665 -31.324525,38.12459 -3.280294,3.7249 -6.586271,7.41641 -9.892923,11.12099 6.032168,4.45492 13.667116,6.44624 21.113685,6.08535 43.875053,-0.0637 87.751203,0.0368 131.625703,-0.12698 5.72197,-0.24634 11.33139,-2.27901 16.00684,-5.54097 0.65096,-0.76177 -0.30835,-1.50694 -0.80134,-2.026 -13.80573,-15.53187 -27.69901,-31.06277 -39.98318,-47.859 -1.98815,1.29259 -3.63319,2.99627 -5.51816,4.3534 -8.37126,6.62977 -17.71675,12.37465 -28.1263,15.10639 -8.56067,2.09351 -17.76928,1.21955 -25.83823,-2.29611 -9.58886,-3.87586 -18.08224,-9.99906 -25.95413,-16.68398 -0.51797,-0.31483 -0.93279,-1.24603 -1.30744,-0.25768 z" />
    <path
       id="path27"
       style="fill:#ffffff;stroke-width:0.301234"
       d="m 241.76938,53.415065 c -12.78083,18.767389 -26.63966,36.922418 -42.81821,52.911065 8.55803,12.29123 18.52584,23.499 28.26397,34.85034 4.22249,4.85208 8.52392,9.62976 12.80474,14.43078 3.8166,-5.59487 5.74447,-12.41438 5.50491,-19.1765 -0.0522,-24.39552 0.12405,-48.793728 -0.17284,-73.187294 -0.25768,-3.739169 -1.46615,-7.33292 -2.95426,-10.747547 -0.20945,0.306388 -0.41889,0.612777 -0.62831,0.919156 z" />
    <path
       d="m 214.3568,35.791345 c -22.48767,0.01728 -44.97558,0.0056 -67.46333,0.01431 -22.48774,0.0087 -44.97536,0.03731 -67.462823,0.134089 -0.822531,0.06412 -1.640668,0.164856 -2.452266,0.300151 -0.811597,0.135295 -1.616972,0.305219 -2.413614,0.508204 -0.796644,0.202986 -1.584886,0.439032 -2.362554,0.706239 -0.777667,0.267204 -1.544422,0.565817 -2.299089,0.893771 -0.754667,0.327954 -1.496999,0.685097 -2.224646,1.070332 -0.727646,0.385232 -1.440719,0.798304 -2.137324,1.237347 -0.696602,0.43904 -1.377005,0.904007 -2.038543,1.393386 -0.661538,0.489379 -1.30443,1.00316 -1.926883,1.539405 -0.08314,0.118604 -0.142772,0.237906 -0.182761,0.357414 -0.03999,0.119511 -0.06038,0.239194 -0.06395,0.358367 -0.0072,0.238349 0.0518,0.474776 0.149836,0.704329 0.09803,0.229553 0.235332,0.452474 0.384614,0.66329 0.149281,0.210817 0.310551,0.409574 0.457144,0.591712 1.647847,2.435543 3.314039,4.861625 5.000924,7.274248 1.686885,2.412623 3.394541,4.811947 5.126423,7.194078 1.731882,2.382122 3.487699,4.746948 5.270534,7.090997 1.782835,2.344058 3.592554,4.667098 5.4323,6.965505 1.839747,2.298404 3.709584,4.572393 5.6122,6.81758 1.902615,2.24518 3.838314,4.461871 5.809756,6.646264 1.971441,2.184386 3.978744,4.336492 6.024962,6.452524 2.04623,2.116024 4.13136,4.195796 6.25831,6.235893 1.0255,0.97569 2.06368,1.94122 3.11604,2.89317 1.05236,0.95197 2.11896,1.89014 3.20002,2.81159 1.08106,0.92145 2.17672,1.82624 3.2883,2.71042 1.11158,0.88418 2.23885,1.74809 3.38277,2.58827 1.14395,0.84016 2.30442,1.65668 3.48253,2.44606 1.17809,0.78938 2.37387,1.5515 3.58797,2.28333 1.21409,0.73185 2.44675,1.43353 3.69868,2.10106 1.25191,0.66756 2.52306,1.30079 3.81461,1.89731 0.78224,0.35096 1.57785,0.68139 2.38454,0.98777 0.80665,0.30635 1.6243,0.58896 2.45082,0.84415 0.82651,0.2552 1.66201,0.48302 2.50381,0.68046 0.84177,0.19742 1.68998,0.36463 2.54247,0.4977 0.85244,0.1331 1.70917,0.23229 2.56773,0.29443 0.85855,0.0621 1.71911,0.0869 2.57919,0.0716 0.86006,-0.0153 1.71934,-0.0708 2.57633,-0.17037 0.85699,-0.0995 1.71127,-0.24264 2.5606,-0.4328 1.08828,-0.22798 2.16182,-0.50209 3.22054,-0.81695 1.05868,-0.31486 2.10254,-0.6705 3.13271,-1.06269 1.03017,-0.39221 2.04653,-0.82077 3.04924,-1.28077 1.00272,-0.46002 1.9918,-0.95148 2.9681,-1.46975 0.97632,-0.51827 1.93984,-1.06354 2.8908,-1.63054 0.95096,-0.567 1.88968,-1.15604 2.81636,-1.76224 0.92669,-0.60621 1.84133,-1.22948 2.74478,-1.86534 0.90346,-0.63586 1.79574,-1.28426 2.67703,-1.94023 1.7537,-1.33218 3.47279,-2.70477 5.15983,-4.11384 1.68704,-1.40908 3.34196,-2.85458 4.96751,-4.33239 1.62554,-1.4778 3.22174,-2.98777 4.79096,-4.526113 1.56924,-1.538348 3.11162,-3.10481 4.62968,-4.695527 1.51806,-1.590718 3.01158,-3.205686 4.48364,-4.840581 1.47208,-1.634903 2.92262,-3.289938 4.35387,-4.960836 1.43123,-1.67091 2.84327,-3.357561 4.23883,-5.056282 1.39562,-1.698722 2.77451,-3.409494 4.1396,-5.127856 1.9031,-2.391447 3.77205,-4.809472 5.61079,-7.249907 1.83873,-2.440425 3.64721,-4.903374 5.42943,-7.385426 1.78224,-2.482054 3.53838,-4.983157 5.27199,-7.499479 1.73358,-2.516319 3.44461,-5.047867 5.13738,-7.591095 -0.72806,-0.698004 -1.49091,-1.356298 -2.28478,-1.973647 -0.79384,-0.61735 -1.61864,-1.193908 -2.46944,-1.727894 -0.85079,-0.53399 -1.72755,-1.025638 -2.62643,-1.473556 -0.89891,-0.447918 -1.82,-0.851962 -2.75814,-1.211101 -0.93815,-0.359138 -1.89364,-0.673365 -2.86217,-0.941014 -0.96853,-0.267647 -1.94987,-0.488886 -2.93997,-0.662336 -0.99006,-0.17345 -1.98869,-0.299005 -2.99147,-0.375546 -1.00277,-0.07654 -2.00969,-0.103722 -3.0163,-0.08065 z"
       style="fill:#ffffff;stroke-width:0.301234"
       id="path1"
       sodipodi:nodetypes="sscssssssscscsscssssssscssssssscssssssscssssssscssssssscssscsssssssss" />
  </g>
</svg>
