<?xml version="1.0" encoding="UTF-8" standalone="no"?>
<!-- Created with Inkscape (http://www.inkscape.org/) -->

<svg
   width="200mm"
   height="200mm"
   viewBox="0 0 200 200"
   version="1.1"
   id="svg1"
   sodipodi:docname="simplemail.svg"
   inkscape:version="1.3 (0e150ed6c4, 2023-07-21)"
   xmlns:inkscape="http://www.inkscape.org/namespaces/inkscape"
   xmlns:sodipodi="http://sodipodi.sourceforge.net/DTD/sodipodi-0.dtd"
   xmlns="http://www.w3.org/2000/svg"
   xmlns:svg="http://www.w3.org/2000/svg">
  <sodipodi:namedview
     id="namedview1"
     pagecolor="#505050"
     bordercolor="#eeeeee"
     borderopacity="1"
     inkscape:showpageshadow="0"
     inkscape:pageopacity="0"
     inkscape:pagecheckerboard="0"
     inkscape:deskcolor="#505050"
     inkscape:document-units="mm"
     inkscape:zoom="0.72426347"
     inkscape:cx="410.76212"
     inkscape:cy="413.52355"
     inkscape:window-width="1920"
     inkscape:window-height="1009"
     inkscape:window-x="1912"
     inkscape:window-y="-8"
     inkscape:window-maximized="1"
     inkscape:current-layer="layer1" />
  <defs
     id="defs1">
    <rect
       x="299.72763"
       y="441.29282"
       width="121.35446"
       height="137.92188"
       id="rect2" />
    <inkscape:path-effect
       effect="fillet_chamfer"
       id="path-effect1"
       is_visible="true"
       lpeversion="1"
       nodesatellites_param="F,0,0,1,0,30.686346,0,1 @ F,0,0,1,0,30.6863,0,1 @ F,0,0,1,0,30.6863,0,1 @ IF,0,0,1,0,30.6863,0,1"
       radius="0"
       unit="px"
       method="auto"
       mode="F"
       chamfer_steps="1"
       flexible="false"
       use_knot_distance="true"
       apply_no_radius="true"
       apply_with_radius="true"
       only_selected="false"
       hide_knots="false" />
  </defs>
  <g
     inkscape:label="Ebene 1"
     inkscape:groupmode="layer"
     id="layer1">
    <path
       id="rect"
       style="fill:#ffffff;stroke-width:0.3114"
       d="m 2.4942179,51.354196 c -2.64437169,5.56879 -3.12865421,11.870191 -2.90860107,17.952725 0.0930168,24.367166 -0.18343982,48.738969 0.23643911,73.102729 0.51649105,5.25378 2.56879216,10.2641 5.46988616,14.64302 C 19.854878,140.64418 34.620835,124.34331 47.464378,106.5192 47.799584,105.49257 46.825913,104.81504 46.172743,104.22836 33.227401,91.320099 21.728361,76.986657 11.113102,62.168852 8.3628837,58.335257 5.6682299,54.462131 2.9991392,50.571576 2.8308335,50.832445 2.6625236,51.093329 2.4942179,51.354196 Z" />
    <path
       id="path26"
       style="fill:#ffffff;stroke-width:0.3114"
       d="m 54.845413,113.30579 c -9.89636,13.85274 -21.248443,26.56389 -32.381701,39.41126 -3.391001,3.85062 -6.808552,7.66671 -10.226801,11.49632 6.235749,4.60527 14.12837,6.66379 21.826254,6.29072 45.355798,-0.0658 90.712735,0.038 136.067965,-0.13126 5.91508,-0.25466 11.71381,-2.35593 16.54705,-5.72798 0.67293,-0.78747 -0.31875,-1.55779 -0.82838,-2.09437 -14.27166,-16.05606 -28.63383,-32.11111 -41.33258,-49.4742 -2.05525,1.33621 -3.75581,3.09739 -5.70439,4.50032 -8.65379,6.85352 -18.31468,12.79229 -29.07554,15.61622 -8.84959,2.16416 -18.368983,1.26071 -26.710253,-2.3736 -9.912475,-4.00667 -18.6925,-10.33652 -26.830059,-17.24705 -0.535451,-0.32546 -0.964271,-1.28808 -1.351565,-0.26638 z" />
    <path
       id="path27"
       style="fill:#ffffff;stroke-width:0.3114"
       d="m 196.09727,51.402402 c -13.21217,19.400773 -27.53873,38.168518 -44.26329,54.696768 8.84686,12.70605 19.15107,24.29208 29.21786,36.02651 4.36499,5.01584 8.81159,9.95476 13.23689,14.91781 3.9454,-5.78369 5.93834,-12.83335 5.69069,-19.82369 -0.054,-25.21885 0.12824,-50.440479 -0.17867,-75.657307 -0.26638,-3.865363 -1.51563,-7.5804 -3.05396,-11.110267 -0.21652,0.316728 -0.43303,0.633457 -0.64952,0.950176 z" />
    <path
       d="m 167.75954,33.183897 c -23.24661,0.01786 -46.49347,0.0058 -69.740163,0.01479 -23.246682,0.009 -46.49324,0.03857 -69.739635,0.138614 -0.850291,0.06628 -1.696039,0.17042 -2.535028,0.310281 -0.838988,0.139861 -1.671544,0.31552 -2.495072,0.525356 -0.82353,0.209836 -1.638374,0.453849 -2.442288,0.730074 -0.803912,0.276222 -1.596545,0.584912 -2.376681,0.923935 -0.780136,0.339022 -1.547521,0.708218 -2.299726,1.106454 -0.752203,0.398234 -1.489342,0.825246 -2.209457,1.279107 -0.720111,0.453857 -1.423477,0.934516 -2.107342,1.440411 -0.683864,0.505896 -1.348453,1.037016 -1.9919134,1.591359 -0.085946,0.122607 -0.1475904,0.245935 -0.188929,0.369476 -0.04134,0.123545 -0.062418,0.247267 -0.066108,0.370462 -0.00744,0.246393 0.053548,0.490799 0.1548928,0.728099 0.1013385,0.237301 0.2432743,0.467745 0.3975946,0.685676 0.154319,0.217932 0.321031,0.423397 0.472572,0.611682 1.70346,2.51774 3.425885,5.0257 5.169701,7.519747 1.743816,2.494047 3.509103,4.974346 5.299435,7.436872 1.790332,2.462517 3.605406,4.907154 5.44841,7.330312 1.843004,2.423168 3.7138,4.824609 5.615635,7.200585 1.901837,2.375973 3.83478,4.726707 5.801607,7.047668 1.966827,2.320953 3.967854,4.612455 6.005831,6.870569 2.037975,2.258107 4.113023,4.482845 6.228299,6.670291 2.115288,2.187438 4.27079,4.337401 6.469523,6.446353 1.060109,1.00862 2.133327,2.00674 3.221203,2.99082 1.087876,0.98409 2.190473,1.95393 3.308018,2.90647 1.117545,0.95255 2.250183,1.88788 3.399277,2.8019 1.149095,0.91402 2.31441,1.80709 3.496936,2.67562 1.182557,0.86852 2.382192,1.71259 3.600062,2.52861 1.21785,0.81602 2.453986,1.60386 3.709061,2.36039 1.255065,0.75655 2.529326,1.48191 3.823508,2.17197 1.29416,0.69009 2.608211,1.34469 3.943349,1.96135 0.80864,0.3628 1.631101,0.70438 2.465017,1.0211 0.833873,0.31669 1.679118,0.60884 2.533533,0.87264 0.854404,0.26381 1.718101,0.49932 2.588311,0.70343 0.870179,0.20408 1.747015,0.37693 2.628276,0.51449 0.881209,0.13759 1.766853,0.24013 2.654389,0.30437 0.887525,0.0642 1.777128,0.0898 2.666242,0.074 0.88908,-0.0158 1.77736,-0.0732 2.66328,-0.17612 0.88591,-0.10286 1.76902,-0.25083 2.64701,-0.44741 1.12501,-0.23567 2.23478,-0.51904 3.32923,-0.84452 1.09441,-0.32549 2.1735,-0.69313 3.23844,-1.09856 1.06494,-0.40544 2.1156,-0.84847 3.15215,-1.32399 1.03656,-0.47555 2.05902,-0.98359 3.06827,-1.51935 1.00927,-0.53577 2.00531,-1.09944 2.98836,-1.68557 0.98306,-0.58614 1.95346,-1.19506 2.91141,-1.82172 0.95797,-0.62667 1.90348,-1.27097 2.83742,-1.92829 0.93395,-0.65732 1.85634,-1.3276 2.76737,-2.00571 1.81289,-1.37714 3.59,-2.79606 5.33397,-4.25268 1.74398,-1.45664 3.45475,-2.95092 5.13516,-4.47861 1.6804,-1.52767 3.33047,-3.088607 4.95265,-4.678868 1.6222,-1.590266 3.21664,-3.209595 4.78593,-4.853997 1.56929,-1.644404 3.11322,-3.313875 4.63496,-5.003947 1.52176,-1.690079 3.02126,-3.40097 4.50081,-5.12826 1.47953,-1.727301 2.93923,-3.470875 4.38189,-5.226927 1.44272,-1.756052 2.86814,-3.524561 4.2793,-5.300917 1.96733,-2.472156 3.89936,-4.971787 5.80015,-7.494585 1.90079,-2.522787 3.7703,-5.068858 5.61267,-7.634677 1.84239,-2.565822 3.6578,-5.151335 5.44992,-7.75258 1.79208,-2.601243 3.56086,-5.218229 5.31076,-7.847288 -0.75263,-0.721561 -1.54123,-1.402072 -2.36189,-2.040256 -0.82063,-0.638185 -1.67327,-1.234202 -2.55278,-1.786209 -0.8795,-0.552012 -1.78585,-1.060253 -2.71507,-1.523287 -0.92925,-0.463035 -1.88142,-0.880715 -2.85123,-1.251975 -0.96981,-0.371259 -1.95754,-0.696091 -2.95876,-0.972772 -1.00122,-0.27668 -2.01568,-0.505386 -3.03919,-0.68469 -1.02348,-0.179304 -2.05581,-0.309096 -3.09243,-0.38822 -1.03662,-0.07912 -2.07752,-0.107223 -3.1181,-0.08337 z"
       style="fill:#ffffff;stroke-width:0.3114"
       id="path1"
       sodipodi:nodetypes="sscssssssscscsscssssssscssssssscssssssscssssssscssssssscssscsssssssss" />
  </g>
</svg>
