<?xml version="1.0" encoding="UTF-8" standalone="no"?>
<svg
   version="1.1"
   x="0px"
   y="0px"
   viewBox="0 0 200 200"
   enable-background="new 0 0 100 100"
   xml:space="preserve"
   id="svg7"
   sodipodi:docname="solo-icon.svg"
   width="200"
   height="200"
   inkscape:version="1.3 (0e150ed6c4, 2023-07-21)"
   xmlns:inkscape="http://www.inkscape.org/namespaces/inkscape"
   xmlns:sodipodi="http://sodipodi.sourceforge.net/DTD/sodipodi-0.dtd"
   xmlns="http://www.w3.org/2000/svg"
   xmlns:svg="http://www.w3.org/2000/svg"><defs
     id="defs7" /><sodipodi:namedview
     id="namedview7"
     pagecolor="#ffffff"
     bordercolor="#000000"
     borderopacity="0.25"
     inkscape:showpageshadow="2"
     inkscape:pageopacity="0.0"
     inkscape:pagecheckerboard="true"
     inkscape:deskcolor="#d1d1d1"
     inkscape:zoom="2.8743891"
     inkscape:cx="80.017003"
     inkscape:cy="96.890153"
     inkscape:window-width="1920"
     inkscape:window-height="1009"
     inkscape:window-x="1912"
     inkscape:window-y="-8"
     inkscape:window-maximized="1"
     inkscape:current-layer="svg7" /><g
     id="g7"
     transform="matrix(5.4879065,0,0,5.4879065,-167.45376,-178.40973)"
     style="fill:#ffffff;fill-opacity:1"><g
       id="g6"
       style="fill:#ffffff;fill-opacity:1"><g
         id="g5"
         style="fill:#ffffff;fill-opacity:1"><g
           id="g1"
           style="fill:#ffffff;fill-opacity:1" /><g
           id="g3"
           style="fill:#ffffff;fill-opacity:1"><g
             id="g2"
             style="fill:#ffffff;fill-opacity:1"><path
               d="M 66.957,68.003 H 30.61 c -0.022,-0.364 -0.045,-0.728 -0.089,-1.157 -0.112,-1.436 -0.224,-2.914 0.178,-4.265 0.491,-1.585 1.764,-2.978 4.71,-3.836 l 1.139,-0.364 c 5.179,-1.479 7.948,-2.314 8.863,-4.265 l 0.291,-0.491 -0.022,-0.622 c -0.067,-0.043 -0.111,-0.085 -0.201,-0.193 -0.313,-0.321 -0.625,-0.643 -0.916,-1.027 -2.009,-2.552 -3.438,-6.494 -3.438,-9.75 0,-4.159 3.082,-8.573 7.68,-8.573 3.595,0 7.458,3.558 7.458,8.872 0,3.387 -1.764,7.585 -4.175,10.05 -0.157,0.173 -0.335,0.321 -0.491,0.472 l -0.29,0.258 0.089,0.387 c 0.625,2.441 3.438,3.277 9.086,4.884 l 1.161,0.364 c 2.925,0.858 4.309,2.273 4.912,3.836 h 0.022 c 0.559,1.521 0.491,3.173 0.424,4.715 -0.022,0.233 -0.022,0.49 -0.044,0.705 z"
               id="path2"
               style="fill:#ffffff;fill-opacity:1" /></g></g><g
           id="g4"
           style="fill:#ffffff;fill-opacity:1" /></g></g></g></svg>
