<?xml version="1.0" encoding="UTF-8" standalone="no"?>
<svg
   id="Layer_1"
   data-name="Layer 1"
   viewBox="0 0 200 200"
   version="1.1"
   sodipodi:docname="unity-logo.svg"
   inkscape:version="1.3 (0e150ed6c4, 2023-07-21)"
   width="200"
   height="200"
   xmlns:inkscape="http://www.inkscape.org/namespaces/inkscape"
   xmlns:sodipodi="http://sodipodi.sourceforge.net/DTD/sodipodi-0.dtd"
   xmlns="http://www.w3.org/2000/svg"
   xmlns:svg="http://www.w3.org/2000/svg">
  <sodipodi:namedview
     id="namedview4"
     pagecolor="#ffffff"
     bordercolor="#000000"
     borderopacity="0.25"
     inkscape:showpageshadow="2"
     inkscape:pageopacity="0.0"
     inkscape:pagecheckerboard="true"
     inkscape:deskcolor="#d1d1d1"
     inkscape:zoom="2.2995113"
     inkscape:cx="150.03188"
     inkscape:cy="133.72407"
     inkscape:window-width="1920"
     inkscape:window-height="1009"
     inkscape:window-x="3832"
     inkscape:window-y="-8"
     inkscape:window-maximized="1"
     inkscape:current-layer="Layer_1" />
  <defs
     id="defs1">
    <style
       id="style1">.cls-1{fill:#ccc;}.cls-2{fill:#fff;}.cls-3{fill:#a6a6a6;}</style>
  </defs>
  <path
     class="cls-1"
     d="M 188.53713,139.93327 V 46.649056 L 107.73922,0.00520792 V 35.782172 l 31.65715,18.275965 c 1.14506,0.63422 1.1746,2.432625 0,3.065108 L 101.76886,78.84311 a 3.5342567,3.5342567 0 0 1 -3.544678,0 L 60.600161,57.123245 c -1.148548,-0.629007 -1.181561,-2.432625 0,-3.068583 L 92.252088,35.780434 V -5e-6 L 11.462871,46.649056 V 139.93848 L 42.451039,122.04131 V 85.485916 c -0.02258,-1.308408 1.518654,-2.229328 2.656775,-1.525609 l 37.625759,21.719883 a 3.5412069,3.5412069 0 0 1 1.772342,3.07205 v 43.43973 c 0.02953,1.30144 -1.504752,2.23453 -2.642873,1.54125 L 50.19895,135.459 19.210782,153.35616 100.00868,200 180.80658,153.35616 149.81841,135.459 118.14564,153.73669 c -1.12248,0.67419 -2.69153,-0.1981 -2.65156,-1.53604 v -43.43974 a 3.537732,3.537732 0 0 1 1.77582,-3.07029 l 37.62228,-21.719882 c 1.119,-0.681136 2.69849,0.19287 2.65678,1.532558 v 36.548454 z"
     id="path1"
     style="stroke-width:0.173759" />
  <path
     class="cls-2"
     d="m 107.74617,-5e-6 v 35.782177 l 31.65713,18.275965 c 1.14507,0.63422 1.17462,2.432625 0,3.065108 L 101.77581,78.84311 a 3.5342567,3.5342567 0 0 1 -3.544675,0 L 60.607111,57.123245 c -1.148548,-0.629007 -1.181561,-2.432625 0,-3.068583 L 92.252088,35.782172 V -5e-6 L 11.462871,46.649056 100,97.760248 188.53713,46.649056 Z"
     id="path2"
     style="stroke-width:0.173759" />
  <path
     class="cls-1"
     d="M 81.863042,153.74188 50.19895,135.459 19.210782,153.35616 100.00868,200 V 97.760248 L 11.462871,46.649056 V 139.93848 L 42.451039,122.04131 V 85.485916 c -0.02258,-1.308408 1.518654,-2.229328 2.656775,-1.525609 l 37.625759,21.719883 a 3.5412069,3.5412069 0 0 1 1.772342,3.07205 v 43.43973 c 0.02953,1.31883 -1.504752,2.24324 -2.642873,1.54991 z"
     id="path3"
     style="stroke-width:0.173759" />
  <path
     class="cls-3"
     d="m 100,199.99478 80.7979,-46.64384 -30.98817,-17.89718 -31.66409,18.28293 c -1.12248,0.67417 -2.69153,-0.1981 -2.65156,-1.53604 v -43.43974 a 3.5429447,3.5429447 0 0 1 1.77409,-3.07029 l 37.62401,-21.719882 c 1.119,-0.681136 2.69849,0.19287 2.65678,1.532558 v 36.548454 l 30.98817,17.89715 V 46.649056 L 100,97.760248 Z"
     id="path4"
     style="stroke-width:0.173759" />
</svg>
